<svg width="222" height="29" viewBox="0 0 222 29" fill="none" xmlns="http://www.w3.org/2000/svg">
<g filter="url(#filter0_f_192_21)">
<path d="M7.924 10.6H9.82V14.128H13.624V10.6H15.52V19H13.624V15.652H9.82V19H7.924V10.6ZM17.3333 12.556H19.1813V19H17.3333V12.556ZM18.2573 9.712C18.5533 9.712 18.7933 9.808 18.9773 10C19.1693 10.192 19.2653 10.432 19.2653 10.72C19.2653 11.008 19.1693 11.248 18.9773 11.44C18.7933 11.632 18.5533 11.728 18.2573 11.728C17.9773 11.728 17.7413 11.632 17.5493 11.44C17.3573 11.248 17.2613 11.008 17.2613 10.72C17.2613 10.432 17.3573 10.192 17.5493 10C17.7413 9.808 17.9773 9.712 18.2573 9.712ZM23.3008 19.84H35.3008V7.84H23.3008V19.84ZM35.9728 10.66H37.7368V12.784L37.4128 16.204H36.2968L35.9728 12.784V10.66ZM36.8368 17.248C37.1008 17.248 37.3208 17.336 37.4968 17.512C37.6728 17.68 37.7608 17.9 37.7608 18.172C37.7608 18.444 37.6728 18.668 37.4968 18.844C37.3208 19.02 37.1008 19.108 36.8368 19.108C36.5648 19.108 36.3408 19.02 36.1648 18.844C35.9968 18.668 35.9128 18.444 35.9128 18.172C35.9128 17.9 35.9968 17.68 36.1648 17.512C36.3408 17.336 36.5648 17.248 36.8368 17.248ZM42.342 10.6H44.454L47.07 15.832L49.662 10.6H51.762V19H50.058V13.216L47.67 18.148H46.446L44.046 13.216V19H42.342V10.6ZM56.7231 19.744C56.4911 20.296 56.1791 20.712 55.7871 20.992C55.3951 21.272 54.9191 21.412 54.3591 21.412C54.0231 21.412 53.7111 21.36 53.4231 21.256C53.1431 21.16 52.8711 21.008 52.6071 20.8L53.3871 19.516C53.6671 19.74 53.9471 19.852 54.2271 19.852C54.4191 19.852 54.5871 19.8 54.7311 19.696C54.8751 19.6 54.9911 19.452 55.0791 19.252L55.2591 18.868L52.5831 12.556H54.4911L56.1831 17.068L57.7071 12.556H59.5551L56.7231 19.744ZM68.1949 15.472C68.1949 15.048 68.0789 14.716 67.8469 14.476C67.6229 14.236 67.3149 14.116 66.9229 14.116C66.4669 14.124 66.1069 14.288 65.8429 14.608C65.5789 14.928 65.4469 15.332 65.4469 15.82H64.9789C64.9789 15.068 65.0869 14.448 65.3029 13.96C65.5269 13.464 65.8389 13.096 66.2389 12.856C66.6469 12.608 67.1269 12.484 67.6789 12.484C68.1589 12.484 68.5749 12.588 68.9269 12.796C69.2869 12.996 69.5629 13.28 69.7549 13.648C69.9469 14.016 70.0429 14.452 70.0429 14.956V19H68.1949V15.472ZM63.5989 12.556H65.4469V19H63.5989V12.556ZM73.918 16.204C73.566 16.204 73.302 16.264 73.126 16.384C72.95 16.504 72.862 16.696 72.862 16.96C72.862 17.216 72.95 17.42 73.126 17.572C73.31 17.716 73.558 17.788 73.87 17.788C74.142 17.788 74.382 17.744 74.59 17.656C74.806 17.56 74.982 17.436 75.118 17.284C75.262 17.124 75.35 16.94 75.382 16.732L75.658 17.764C75.474 18.196 75.186 18.524 74.794 18.748C74.402 18.972 73.922 19.084 73.354 19.084C72.898 19.084 72.502 18.996 72.166 18.82C71.838 18.644 71.582 18.404 71.398 18.1C71.222 17.796 71.134 17.452 71.134 17.068C71.134 16.468 71.346 15.996 71.77 15.652C72.194 15.308 72.802 15.132 73.594 15.124H75.562V16.204H73.918ZM75.37 15.004C75.37 14.652 75.254 14.376 75.022 14.176C74.798 13.976 74.466 13.876 74.026 13.876C73.738 13.876 73.43 13.928 73.102 14.032C72.774 14.128 72.442 14.268 72.106 14.452L71.53 13.252C71.85 13.084 72.162 12.944 72.466 12.832C72.77 12.72 73.082 12.636 73.402 12.58C73.722 12.516 74.07 12.484 74.446 12.484C75.318 12.484 75.99 12.688 76.462 13.096C76.934 13.504 77.174 14.068 77.182 14.788L77.194 19H75.382L75.37 15.004ZM83.3104 15.472C83.3104 15.048 83.1984 14.716 82.9744 14.476C82.7584 14.228 82.4584 14.104 82.0744 14.104C81.6264 14.12 81.2744 14.288 81.0184 14.608C80.7624 14.928 80.6344 15.332 80.6344 15.82H80.1664C80.1664 15.068 80.2744 14.448 80.4904 13.96C80.7064 13.464 81.0104 13.096 81.4024 12.856C81.8024 12.608 82.2744 12.484 82.8184 12.484C83.2984 12.484 83.7104 12.588 84.0544 12.796C84.4064 12.996 84.6744 13.28 84.8584 13.648C85.0504 14.016 85.1464 14.452 85.1464 14.956V19H83.3104V15.472ZM87.8224 15.472C87.8224 15.048 87.7104 14.716 87.4864 14.476C87.2624 14.228 86.9584 14.104 86.5744 14.104C86.1344 14.12 85.7864 14.288 85.5304 14.608C85.2744 14.928 85.1464 15.332 85.1464 15.82H84.6784C84.6784 15.068 84.7864 14.448 85.0024 13.96C85.2184 13.464 85.5224 13.096 85.9144 12.856C86.3144 12.608 86.7864 12.484 87.3304 12.484C87.8104 12.484 88.2224 12.588 88.5664 12.796C88.9184 12.996 89.1864 13.28 89.3704 13.648C89.5624 14.016 89.6584 14.452 89.6584 14.956V19H87.8224V15.472ZM78.7864 12.556H80.6344V19H78.7864V12.556ZM95.4672 15.256C95.4592 14.96 95.3952 14.708 95.2752 14.5C95.1632 14.284 94.9992 14.116 94.7832 13.996C94.5672 13.876 94.3192 13.816 94.0392 13.816C93.7272 13.816 93.4552 13.896 93.2232 14.056C92.9912 14.216 92.8112 14.436 92.6832 14.716C92.5552 14.996 92.4912 15.32 92.4912 15.688C92.4912 16.104 92.5632 16.46 92.7072 16.756C92.8512 17.052 93.0552 17.28 93.3192 17.44C93.5832 17.6 93.8872 17.68 94.2312 17.68C94.8552 17.68 95.3992 17.448 95.8632 16.984L96.8352 17.944C96.5152 18.304 96.1192 18.58 95.6472 18.772C95.1832 18.964 94.6592 19.06 94.0752 19.06C93.3872 19.06 92.7912 18.924 92.2872 18.652C91.7832 18.38 91.3912 18 91.1112 17.512C90.8392 17.016 90.7032 16.444 90.7032 15.796C90.7032 15.132 90.8432 14.556 91.1232 14.068C91.4032 13.572 91.7912 13.188 92.2872 12.916C92.7912 12.644 93.3712 12.504 94.0272 12.496C94.7872 12.496 95.4072 12.656 95.8872 12.976C96.3752 13.288 96.7272 13.732 96.9432 14.308C97.1672 14.876 97.2512 15.552 97.1952 16.336H92.2272V15.256H95.4672ZM101.65 12.556H103.498V19H101.65V12.556ZM102.574 9.712C102.87 9.712 103.11 9.808 103.294 10C103.486 10.192 103.582 10.432 103.582 10.72C103.582 11.008 103.486 11.248 103.294 11.44C103.11 11.632 102.87 11.728 102.574 11.728C102.294 11.728 102.058 11.632 101.866 11.44C101.674 11.248 101.578 11.008 101.578 10.72C101.578 10.432 101.674 10.192 101.866 10C102.058 9.808 102.294 9.712 102.574 9.712ZM109.339 14.404C108.987 14.212 108.639 14.064 108.295 13.96C107.951 13.848 107.643 13.792 107.371 13.792C107.155 13.792 106.975 13.832 106.831 13.912C106.695 13.992 106.627 14.12 106.627 14.296C106.627 14.464 106.707 14.6 106.867 14.704C107.035 14.8 107.247 14.884 107.503 14.956C107.767 15.028 108.043 15.112 108.331 15.208C108.619 15.296 108.891 15.412 109.147 15.556C109.411 15.7 109.623 15.896 109.783 16.144C109.943 16.384 110.023 16.696 110.023 17.08C110.023 17.512 109.907 17.88 109.675 18.184C109.443 18.48 109.127 18.704 108.727 18.856C108.327 19 107.883 19.072 107.395 19.072C106.875 19.072 106.371 18.996 105.883 18.844C105.395 18.692 104.967 18.468 104.599 18.172L105.199 16.972C105.535 17.228 105.903 17.428 106.303 17.572C106.711 17.708 107.091 17.776 107.443 17.776C107.603 17.776 107.743 17.756 107.863 17.716C107.983 17.676 108.079 17.616 108.151 17.536C108.223 17.456 108.259 17.356 108.259 17.236C108.259 17.06 108.179 16.92 108.019 16.816C107.859 16.704 107.651 16.612 107.395 16.54C107.139 16.46 106.867 16.38 106.579 16.3C106.291 16.212 106.019 16.096 105.763 15.952C105.515 15.808 105.311 15.62 105.151 15.388C104.991 15.148 104.911 14.84 104.911 14.464C104.911 14.016 105.027 13.648 105.259 13.36C105.491 13.064 105.799 12.844 106.183 12.7C106.567 12.556 106.991 12.484 107.455 12.484C107.903 12.484 108.343 12.544 108.775 12.664C109.215 12.784 109.615 12.956 109.975 13.18L109.339 14.404ZM114.529 10.6H116.641L119.257 15.832L121.849 10.6H123.949V19H122.245V13.216L119.857 18.148H118.633L116.233 13.216V19H114.529V10.6ZM125.779 12.556H127.627V19H125.779V12.556ZM126.703 9.712C126.999 9.712 127.239 9.808 127.423 10C127.615 10.192 127.711 10.432 127.711 10.72C127.711 11.008 127.615 11.248 127.423 11.44C127.239 11.632 126.999 11.728 126.703 11.728C126.423 11.728 126.187 11.632 125.995 11.44C125.803 11.248 125.707 11.008 125.707 10.72C125.707 10.432 125.803 10.192 125.995 10C126.187 9.808 126.423 9.712 126.703 9.712ZM129.46 10.096H131.308V19H129.46V10.096ZM133.672 12.556H135.772L131.2 17.344V15.172L133.672 12.556ZM133.252 14.824L135.88 19H133.696L131.896 15.928L133.252 14.824ZM139.417 12.496C140.105 12.496 140.709 12.632 141.229 12.904C141.749 13.176 142.153 13.56 142.441 14.056C142.729 14.544 142.873 15.116 142.873 15.772C142.873 16.428 142.729 17.004 142.441 17.5C142.153 17.996 141.749 18.38 141.229 18.652C140.709 18.924 140.105 19.06 139.417 19.06C138.729 19.06 138.121 18.924 137.593 18.652C137.073 18.38 136.669 17.996 136.381 17.5C136.093 17.004 135.949 16.428 135.949 15.772C135.949 15.116 136.093 14.544 136.381 14.056C136.669 13.56 137.073 13.176 137.593 12.904C138.121 12.632 138.729 12.496 139.417 12.496ZM139.417 13.972C139.097 13.972 138.813 14.048 138.565 14.2C138.325 14.352 138.137 14.568 138.001 14.848C137.865 15.12 137.797 15.436 137.797 15.796C137.797 16.156 137.865 16.476 138.001 16.756C138.137 17.028 138.325 17.244 138.565 17.404C138.813 17.556 139.097 17.632 139.417 17.632C139.737 17.632 140.017 17.556 140.257 17.404C140.497 17.244 140.685 17.028 140.821 16.756C140.957 16.476 141.025 16.156 141.025 15.796C141.025 15.436 140.957 15.12 140.821 14.848C140.685 14.568 140.497 14.352 140.257 14.2C140.017 14.048 139.737 13.972 139.417 13.972ZM150.065 10.6H152.009L155.585 19H153.569L150.977 12.496L148.373 19H146.405L150.065 10.6ZM148.445 15.844H153.401V17.32H148.445V15.844ZM160.419 14.152C159.987 14.112 159.607 14.164 159.279 14.308C158.959 14.452 158.711 14.66 158.535 14.932C158.367 15.204 158.283 15.528 158.283 15.904L157.815 15.82C157.815 15.116 157.919 14.516 158.127 14.02C158.343 13.524 158.647 13.144 159.039 12.88C159.431 12.616 159.891 12.484 160.419 12.484V14.152ZM156.435 12.556H158.283V19H156.435V12.556ZM163.875 12.484C164.443 12.484 164.927 12.62 165.327 12.892C165.727 13.156 166.035 13.532 166.251 14.02C166.467 14.508 166.575 15.088 166.575 15.76C166.575 16.44 166.467 17.028 166.251 17.524C166.043 18.02 165.739 18.404 165.339 18.676C164.947 18.94 164.475 19.072 163.923 19.072C163.315 19.072 162.779 18.936 162.315 18.664C161.859 18.384 161.503 17.996 161.247 17.5C160.999 16.996 160.875 16.412 160.875 15.748C160.875 15.1 160.999 14.532 161.247 14.044C161.503 13.556 161.855 13.176 162.303 12.904C162.751 12.624 163.275 12.484 163.875 12.484ZM164.355 13.96C164.035 13.96 163.751 14.04 163.503 14.2C163.263 14.352 163.075 14.568 162.939 14.848C162.803 15.128 162.731 15.448 162.723 15.808C162.731 16.16 162.803 16.476 162.939 16.756C163.075 17.028 163.263 17.244 163.503 17.404C163.751 17.556 164.035 17.632 164.355 17.632C164.667 17.632 164.943 17.556 165.183 17.404C165.431 17.244 165.623 17.028 165.759 16.756C165.895 16.476 165.963 16.16 165.963 15.808C165.963 15.44 165.895 15.12 165.759 14.848C165.623 14.568 165.431 14.352 165.183 14.2C164.943 14.04 164.667 13.96 164.355 13.96ZM165.963 10.096H167.799V19H165.963V10.096ZM169.642 12.556H171.49V19H169.642V12.556ZM170.566 9.712C170.862 9.712 171.102 9.808 171.286 10C171.478 10.192 171.574 10.432 171.574 10.72C171.574 11.008 171.478 11.248 171.286 11.44C171.102 11.632 170.862 11.728 170.566 11.728C170.286 11.728 170.05 11.632 169.858 11.44C169.666 11.248 169.57 11.008 169.57 10.72C169.57 10.432 169.666 10.192 169.858 10C170.05 9.808 170.286 9.712 170.566 9.712ZM175.543 16.204C175.191 16.204 174.927 16.264 174.751 16.384C174.575 16.504 174.487 16.696 174.487 16.96C174.487 17.216 174.575 17.42 174.751 17.572C174.935 17.716 175.183 17.788 175.495 17.788C175.767 17.788 176.007 17.744 176.215 17.656C176.431 17.56 176.607 17.436 176.743 17.284C176.887 17.124 176.975 16.94 177.007 16.732L177.283 17.764C177.099 18.196 176.811 18.524 176.419 18.748C176.027 18.972 175.547 19.084 174.979 19.084C174.523 19.084 174.127 18.996 173.791 18.82C173.463 18.644 173.207 18.404 173.023 18.1C172.847 17.796 172.759 17.452 172.759 17.068C172.759 16.468 172.971 15.996 173.395 15.652C173.819 15.308 174.427 15.132 175.219 15.124H177.187V16.204H175.543ZM176.995 15.004C176.995 14.652 176.879 14.376 176.647 14.176C176.423 13.976 176.091 13.876 175.651 13.876C175.363 13.876 175.055 13.928 174.727 14.032C174.399 14.128 174.067 14.268 173.731 14.452L173.155 13.252C173.475 13.084 173.787 12.944 174.091 12.832C174.395 12.72 174.707 12.636 175.027 12.58C175.347 12.516 175.695 12.484 176.071 12.484C176.943 12.484 177.615 12.688 178.087 13.096C178.559 13.504 178.799 14.068 178.807 14.788L178.819 19H177.007L176.995 15.004ZM185.007 15.472C185.007 15.048 184.891 14.716 184.659 14.476C184.435 14.236 184.127 14.116 183.735 14.116C183.279 14.124 182.919 14.288 182.655 14.608C182.391 14.928 182.259 15.332 182.259 15.82H181.791C181.791 15.068 181.899 14.448 182.115 13.96C182.339 13.464 182.651 13.096 183.051 12.856C183.459 12.608 183.939 12.484 184.491 12.484C184.971 12.484 185.387 12.588 185.739 12.796C186.099 12.996 186.375 13.28 186.567 13.648C186.759 14.016 186.855 14.452 186.855 14.956V19H185.007V15.472ZM180.411 12.556H182.259V19H180.411V12.556ZM192.519 14.404C192.167 14.212 191.819 14.064 191.475 13.96C191.131 13.848 190.823 13.792 190.551 13.792C190.335 13.792 190.155 13.832 190.011 13.912C189.875 13.992 189.807 14.12 189.807 14.296C189.807 14.464 189.887 14.6 190.047 14.704C190.215 14.8 190.427 14.884 190.683 14.956C190.947 15.028 191.223 15.112 191.511 15.208C191.799 15.296 192.071 15.412 192.327 15.556C192.591 15.7 192.803 15.896 192.963 16.144C193.123 16.384 193.203 16.696 193.203 17.08C193.203 17.512 193.087 17.88 192.855 18.184C192.623 18.48 192.307 18.704 191.907 18.856C191.507 19 191.063 19.072 190.575 19.072C190.055 19.072 189.551 18.996 189.062 18.844C188.575 18.692 188.147 18.468 187.779 18.172L188.379 16.972C188.715 17.228 189.083 17.428 189.483 17.572C189.891 17.708 190.271 17.776 190.623 17.776C190.783 17.776 190.923 17.756 191.043 17.716C191.163 17.676 191.259 17.616 191.331 17.536C191.403 17.456 191.439 17.356 191.439 17.236C191.439 17.06 191.359 16.92 191.199 16.816C191.039 16.704 190.831 16.612 190.575 16.54C190.319 16.46 190.047 16.38 189.759 16.3C189.471 16.212 189.199 16.096 188.943 15.952C188.695 15.808 188.491 15.62 188.331 15.388C188.171 15.148 188.091 14.84 188.091 14.464C188.091 14.016 188.207 13.648 188.439 13.36C188.671 13.064 188.979 12.844 189.363 12.7C189.747 12.556 190.171 12.484 190.635 12.484C191.083 12.484 191.523 12.544 191.955 12.664C192.395 12.784 192.795 12.956 193.155 13.18L192.519 14.404ZM197.489 19.744C197.257 20.296 196.945 20.712 196.553 20.992C196.161 21.272 195.685 21.412 195.125 21.412C194.789 21.412 194.477 21.36 194.189 21.256C193.909 21.16 193.637 21.008 193.373 20.8L194.153 19.516C194.433 19.74 194.713 19.852 194.993 19.852C195.185 19.852 195.353 19.8 195.497 19.696C195.641 19.6 195.757 19.452 195.845 19.252L196.025 18.868L193.349 12.556H195.257L196.949 17.068L198.473 12.556H200.321L197.489 19.744ZM203.234 16.204C202.882 16.204 202.618 16.264 202.442 16.384C202.266 16.504 202.178 16.696 202.178 16.96C202.178 17.216 202.266 17.42 202.442 17.572C202.626 17.716 202.874 17.788 203.186 17.788C203.458 17.788 203.698 17.744 203.906 17.656C204.122 17.56 204.298 17.436 204.434 17.284C204.578 17.124 204.666 16.94 204.698 16.732L204.974 17.764C204.79 18.196 204.502 18.524 204.11 18.748C203.718 18.972 203.238 19.084 202.67 19.084C202.214 19.084 201.818 18.996 201.482 18.82C201.154 18.644 200.898 18.404 200.714 18.1C200.538 17.796 200.45 17.452 200.45 17.068C200.45 16.468 200.662 15.996 201.086 15.652C201.51 15.308 202.118 15.132 202.91 15.124H204.878V16.204H203.234ZM204.686 15.004C204.686 14.652 204.57 14.376 204.338 14.176C204.114 13.976 203.782 13.876 203.342 13.876C203.054 13.876 202.746 13.928 202.418 14.032C202.09 14.128 201.758 14.268 201.422 14.452L200.846 13.252C201.166 13.084 201.478 12.944 201.782 12.832C202.086 12.72 202.398 12.636 202.718 12.58C203.038 12.516 203.386 12.484 203.762 12.484C204.634 12.484 205.306 12.688 205.778 13.096C206.25 13.504 206.49 14.068 206.498 14.788L206.51 19H204.698L204.686 15.004ZM212.771 15.472C212.771 15.048 212.655 14.716 212.423 14.476C212.199 14.236 211.891 14.116 211.499 14.116C211.035 14.124 210.671 14.288 210.407 14.608C210.143 14.928 210.011 15.332 210.011 15.82H209.555C209.555 15.068 209.663 14.448 209.879 13.96C210.095 13.464 210.403 13.096 210.803 12.856C211.211 12.608 211.691 12.484 212.243 12.484C212.731 12.484 213.151 12.588 213.503 12.796C213.863 12.996 214.139 13.28 214.331 13.648C214.523 14.016 214.619 14.452 214.619 14.956V19H212.771V15.472ZM208.163 10.096H210.011V19H208.163V10.096Z" fill="white"/>
</g>
<g filter="url(#filter1_i_192_21)">
<path d="M7.924 10.6H9.82V14.128H13.624V10.6H15.52V19H13.624V15.652H9.82V19H7.924V10.6ZM17.3333 12.556H19.1813V19H17.3333V12.556ZM18.2573 9.712C18.5533 9.712 18.7933 9.808 18.9773 10C19.1693 10.192 19.2653 10.432 19.2653 10.72C19.2653 11.008 19.1693 11.248 18.9773 11.44C18.7933 11.632 18.5533 11.728 18.2573 11.728C17.9773 11.728 17.7413 11.632 17.5493 11.44C17.3573 11.248 17.2613 11.008 17.2613 10.72C17.2613 10.432 17.3573 10.192 17.5493 10C17.7413 9.808 17.9773 9.712 18.2573 9.712ZM23.3008 19.84H35.3008V7.84H23.3008V19.84ZM35.9728 10.66H37.7368V12.784L37.4128 16.204H36.2968L35.9728 12.784V10.66ZM36.8368 17.248C37.1008 17.248 37.3208 17.336 37.4968 17.512C37.6728 17.68 37.7608 17.9 37.7608 18.172C37.7608 18.444 37.6728 18.668 37.4968 18.844C37.3208 19.02 37.1008 19.108 36.8368 19.108C36.5648 19.108 36.3408 19.02 36.1648 18.844C35.9968 18.668 35.9128 18.444 35.9128 18.172C35.9128 17.9 35.9968 17.68 36.1648 17.512C36.3408 17.336 36.5648 17.248 36.8368 17.248ZM42.342 10.6H44.454L47.07 15.832L49.662 10.6H51.762V19H50.058V13.216L47.67 18.148H46.446L44.046 13.216V19H42.342V10.6ZM56.7231 19.744C56.4911 20.296 56.1791 20.712 55.7871 20.992C55.3951 21.272 54.9191 21.412 54.3591 21.412C54.0231 21.412 53.7111 21.36 53.4231 21.256C53.1431 21.16 52.8711 21.008 52.6071 20.8L53.3871 19.516C53.6671 19.74 53.9471 19.852 54.2271 19.852C54.4191 19.852 54.5871 19.8 54.7311 19.696C54.8751 19.6 54.9911 19.452 55.0791 19.252L55.2591 18.868L52.5831 12.556H54.4911L56.1831 17.068L57.7071 12.556H59.5551L56.7231 19.744ZM68.1949 15.472C68.1949 15.048 68.0789 14.716 67.8469 14.476C67.6229 14.236 67.3149 14.116 66.9229 14.116C66.4669 14.124 66.1069 14.288 65.8429 14.608C65.5789 14.928 65.4469 15.332 65.4469 15.82H64.9789C64.9789 15.068 65.0869 14.448 65.3029 13.96C65.5269 13.464 65.8389 13.096 66.2389 12.856C66.6469 12.608 67.1269 12.484 67.6789 12.484C68.1589 12.484 68.5749 12.588 68.9269 12.796C69.2869 12.996 69.5629 13.28 69.7549 13.648C69.9469 14.016 70.0429 14.452 70.0429 14.956V19H68.1949V15.472ZM63.5989 12.556H65.4469V19H63.5989V12.556ZM73.918 16.204C73.566 16.204 73.302 16.264 73.126 16.384C72.95 16.504 72.862 16.696 72.862 16.96C72.862 17.216 72.95 17.42 73.126 17.572C73.31 17.716 73.558 17.788 73.87 17.788C74.142 17.788 74.382 17.744 74.59 17.656C74.806 17.56 74.982 17.436 75.118 17.284C75.262 17.124 75.35 16.94 75.382 16.732L75.658 17.764C75.474 18.196 75.186 18.524 74.794 18.748C74.402 18.972 73.922 19.084 73.354 19.084C72.898 19.084 72.502 18.996 72.166 18.82C71.838 18.644 71.582 18.404 71.398 18.1C71.222 17.796 71.134 17.452 71.134 17.068C71.134 16.468 71.346 15.996 71.77 15.652C72.194 15.308 72.802 15.132 73.594 15.124H75.562V16.204H73.918ZM75.37 15.004C75.37 14.652 75.254 14.376 75.022 14.176C74.798 13.976 74.466 13.876 74.026 13.876C73.738 13.876 73.43 13.928 73.102 14.032C72.774 14.128 72.442 14.268 72.106 14.452L71.53 13.252C71.85 13.084 72.162 12.944 72.466 12.832C72.77 12.72 73.082 12.636 73.402 12.58C73.722 12.516 74.07 12.484 74.446 12.484C75.318 12.484 75.99 12.688 76.462 13.096C76.934 13.504 77.174 14.068 77.182 14.788L77.194 19H75.382L75.37 15.004ZM83.3104 15.472C83.3104 15.048 83.1984 14.716 82.9744 14.476C82.7584 14.228 82.4584 14.104 82.0744 14.104C81.6264 14.12 81.2744 14.288 81.0184 14.608C80.7624 14.928 80.6344 15.332 80.6344 15.82H80.1664C80.1664 15.068 80.2744 14.448 80.4904 13.96C80.7064 13.464 81.0104 13.096 81.4024 12.856C81.8024 12.608 82.2744 12.484 82.8184 12.484C83.2984 12.484 83.7104 12.588 84.0544 12.796C84.4064 12.996 84.6744 13.28 84.8584 13.648C85.0504 14.016 85.1464 14.452 85.1464 14.956V19H83.3104V15.472ZM87.8224 15.472C87.8224 15.048 87.7104 14.716 87.4864 14.476C87.2624 14.228 86.9584 14.104 86.5744 14.104C86.1344 14.12 85.7864 14.288 85.5304 14.608C85.2744 14.928 85.1464 15.332 85.1464 15.82H84.6784C84.6784 15.068 84.7864 14.448 85.0024 13.96C85.2184 13.464 85.5224 13.096 85.9144 12.856C86.3144 12.608 86.7864 12.484 87.3304 12.484C87.8104 12.484 88.2224 12.588 88.5664 12.796C88.9184 12.996 89.1864 13.28 89.3704 13.648C89.5624 14.016 89.6584 14.452 89.6584 14.956V19H87.8224V15.472ZM78.7864 12.556H80.6344V19H78.7864V12.556ZM95.4672 15.256C95.4592 14.96 95.3952 14.708 95.2752 14.5C95.1632 14.284 94.9992 14.116 94.7832 13.996C94.5672 13.876 94.3192 13.816 94.0392 13.816C93.7272 13.816 93.4552 13.896 93.2232 14.056C92.9912 14.216 92.8112 14.436 92.6832 14.716C92.5552 14.996 92.4912 15.32 92.4912 15.688C92.4912 16.104 92.5632 16.46 92.7072 16.756C92.8512 17.052 93.0552 17.28 93.3192 17.44C93.5832 17.6 93.8872 17.68 94.2312 17.68C94.8552 17.68 95.3992 17.448 95.8632 16.984L96.8352 17.944C96.5152 18.304 96.1192 18.58 95.6472 18.772C95.1832 18.964 94.6592 19.06 94.0752 19.06C93.3872 19.06 92.7912 18.924 92.2872 18.652C91.7832 18.38 91.3912 18 91.1112 17.512C90.8392 17.016 90.7032 16.444 90.7032 15.796C90.7032 15.132 90.8432 14.556 91.1232 14.068C91.4032 13.572 91.7912 13.188 92.2872 12.916C92.7912 12.644 93.3712 12.504 94.0272 12.496C94.7872 12.496 95.4072 12.656 95.8872 12.976C96.3752 13.288 96.7272 13.732 96.9432 14.308C97.1672 14.876 97.2512 15.552 97.1952 16.336H92.2272V15.256H95.4672ZM101.65 12.556H103.498V19H101.65V12.556ZM102.574 9.712C102.87 9.712 103.11 9.808 103.294 10C103.486 10.192 103.582 10.432 103.582 10.72C103.582 11.008 103.486 11.248 103.294 11.44C103.11 11.632 102.87 11.728 102.574 11.728C102.294 11.728 102.058 11.632 101.866 11.44C101.674 11.248 101.578 11.008 101.578 10.72C101.578 10.432 101.674 10.192 101.866 10C102.058 9.808 102.294 9.712 102.574 9.712ZM109.339 14.404C108.987 14.212 108.639 14.064 108.295 13.96C107.951 13.848 107.643 13.792 107.371 13.792C107.155 13.792 106.975 13.832 106.831 13.912C106.695 13.992 106.627 14.12 106.627 14.296C106.627 14.464 106.707 14.6 106.867 14.704C107.035 14.8 107.247 14.884 107.503 14.956C107.767 15.028 108.043 15.112 108.331 15.208C108.619 15.296 108.891 15.412 109.147 15.556C109.411 15.7 109.623 15.896 109.783 16.144C109.943 16.384 110.023 16.696 110.023 17.08C110.023 17.512 109.907 17.88 109.675 18.184C109.443 18.48 109.127 18.704 108.727 18.856C108.327 19 107.883 19.072 107.395 19.072C106.875 19.072 106.371 18.996 105.883 18.844C105.395 18.692 104.967 18.468 104.599 18.172L105.199 16.972C105.535 17.228 105.903 17.428 106.303 17.572C106.711 17.708 107.091 17.776 107.443 17.776C107.603 17.776 107.743 17.756 107.863 17.716C107.983 17.676 108.079 17.616 108.151 17.536C108.223 17.456 108.259 17.356 108.259 17.236C108.259 17.06 108.179 16.92 108.019 16.816C107.859 16.704 107.651 16.612 107.395 16.54C107.139 16.46 106.867 16.38 106.579 16.3C106.291 16.212 106.019 16.096 105.763 15.952C105.515 15.808 105.311 15.62 105.151 15.388C104.991 15.148 104.911 14.84 104.911 14.464C104.911 14.016 105.027 13.648 105.259 13.36C105.491 13.064 105.799 12.844 106.183 12.7C106.567 12.556 106.991 12.484 107.455 12.484C107.903 12.484 108.343 12.544 108.775 12.664C109.215 12.784 109.615 12.956 109.975 13.18L109.339 14.404ZM114.529 10.6H116.641L119.257 15.832L121.849 10.6H123.949V19H122.245V13.216L119.857 18.148H118.633L116.233 13.216V19H114.529V10.6ZM125.779 12.556H127.627V19H125.779V12.556ZM126.703 9.712C126.999 9.712 127.239 9.808 127.423 10C127.615 10.192 127.711 10.432 127.711 10.72C127.711 11.008 127.615 11.248 127.423 11.44C127.239 11.632 126.999 11.728 126.703 11.728C126.423 11.728 126.187 11.632 125.995 11.44C125.803 11.248 125.707 11.008 125.707 10.72C125.707 10.432 125.803 10.192 125.995 10C126.187 9.808 126.423 9.712 126.703 9.712ZM129.46 10.096H131.308V19H129.46V10.096ZM133.672 12.556H135.772L131.2 17.344V15.172L133.672 12.556ZM133.252 14.824L135.88 19H133.696L131.896 15.928L133.252 14.824ZM139.417 12.496C140.105 12.496 140.709 12.632 141.229 12.904C141.749 13.176 142.153 13.56 142.441 14.056C142.729 14.544 142.873 15.116 142.873 15.772C142.873 16.428 142.729 17.004 142.441 17.5C142.153 17.996 141.749 18.38 141.229 18.652C140.709 18.924 140.105 19.06 139.417 19.06C138.729 19.06 138.121 18.924 137.593 18.652C137.073 18.38 136.669 17.996 136.381 17.5C136.093 17.004 135.949 16.428 135.949 15.772C135.949 15.116 136.093 14.544 136.381 14.056C136.669 13.56 137.073 13.176 137.593 12.904C138.121 12.632 138.729 12.496 139.417 12.496ZM139.417 13.972C139.097 13.972 138.813 14.048 138.565 14.2C138.325 14.352 138.137 14.568 138.001 14.848C137.865 15.12 137.797 15.436 137.797 15.796C137.797 16.156 137.865 16.476 138.001 16.756C138.137 17.028 138.325 17.244 138.565 17.404C138.813 17.556 139.097 17.632 139.417 17.632C139.737 17.632 140.017 17.556 140.257 17.404C140.497 17.244 140.685 17.028 140.821 16.756C140.957 16.476 141.025 16.156 141.025 15.796C141.025 15.436 140.957 15.12 140.821 14.848C140.685 14.568 140.497 14.352 140.257 14.2C140.017 14.048 139.737 13.972 139.417 13.972Z" fill="white"/>
<path d="M150.065 10.6H152.009L155.585 19H153.569L150.977 12.496L148.373 19H146.405L150.065 10.6ZM148.445 15.844H153.401V17.32H148.445V15.844ZM160.419 14.152C159.987 14.112 159.607 14.164 159.279 14.308C158.959 14.452 158.711 14.66 158.535 14.932C158.367 15.204 158.283 15.528 158.283 15.904L157.815 15.82C157.815 15.116 157.919 14.516 158.127 14.02C158.343 13.524 158.647 13.144 159.039 12.88C159.431 12.616 159.891 12.484 160.419 12.484V14.152ZM156.435 12.556H158.283V19H156.435V12.556ZM163.875 12.484C164.443 12.484 164.927 12.62 165.327 12.892C165.727 13.156 166.035 13.532 166.251 14.02C166.467 14.508 166.575 15.088 166.575 15.76C166.575 16.44 166.467 17.028 166.251 17.524C166.043 18.02 165.739 18.404 165.339 18.676C164.947 18.94 164.475 19.072 163.923 19.072C163.315 19.072 162.779 18.936 162.315 18.664C161.859 18.384 161.503 17.996 161.247 17.5C160.999 16.996 160.875 16.412 160.875 15.748C160.875 15.1 160.999 14.532 161.247 14.044C161.503 13.556 161.855 13.176 162.303 12.904C162.751 12.624 163.275 12.484 163.875 12.484ZM164.355 13.96C164.035 13.96 163.751 14.04 163.503 14.2C163.263 14.352 163.075 14.568 162.939 14.848C162.803 15.128 162.731 15.448 162.723 15.808C162.731 16.16 162.803 16.476 162.939 16.756C163.075 17.028 163.263 17.244 163.503 17.404C163.751 17.556 164.035 17.632 164.355 17.632C164.667 17.632 164.943 17.556 165.183 17.404C165.431 17.244 165.623 17.028 165.759 16.756C165.895 16.476 165.963 16.16 165.963 15.808C165.963 15.44 165.895 15.12 165.759 14.848C165.623 14.568 165.431 14.352 165.183 14.2C164.943 14.04 164.667 13.96 164.355 13.96ZM165.963 10.096H167.799V19H165.963V10.096ZM169.642 12.556H171.49V19H169.642V12.556ZM170.566 9.712C170.862 9.712 171.102 9.808 171.286 10C171.478 10.192 171.574 10.432 171.574 10.72C171.574 11.008 171.478 11.248 171.286 11.44C171.102 11.632 170.862 11.728 170.566 11.728C170.286 11.728 170.05 11.632 169.858 11.44C169.666 11.248 169.57 11.008 169.57 10.72C169.57 10.432 169.666 10.192 169.858 10C170.05 9.808 170.286 9.712 170.566 9.712ZM175.543 16.204C175.191 16.204 174.927 16.264 174.751 16.384C174.575 16.504 174.487 16.696 174.487 16.96C174.487 17.216 174.575 17.42 174.751 17.572C174.935 17.716 175.183 17.788 175.495 17.788C175.767 17.788 176.007 17.744 176.215 17.656C176.431 17.56 176.607 17.436 176.743 17.284C176.887 17.124 176.975 16.94 177.007 16.732L177.283 17.764C177.099 18.196 176.811 18.524 176.419 18.748C176.027 18.972 175.547 19.084 174.979 19.084C174.523 19.084 174.127 18.996 173.791 18.82C173.463 18.644 173.207 18.404 173.023 18.1C172.847 17.796 172.759 17.452 172.759 17.068C172.759 16.468 172.971 15.996 173.395 15.652C173.819 15.308 174.427 15.132 175.219 15.124H177.187V16.204H175.543ZM176.995 15.004C176.995 14.652 176.879 14.376 176.647 14.176C176.423 13.976 176.091 13.876 175.651 13.876C175.363 13.876 175.055 13.928 174.727 14.032C174.399 14.128 174.067 14.268 173.731 14.452L173.155 13.252C173.475 13.084 173.787 12.944 174.091 12.832C174.395 12.72 174.707 12.636 175.027 12.58C175.347 12.516 175.695 12.484 176.071 12.484C176.943 12.484 177.615 12.688 178.087 13.096C178.559 13.504 178.799 14.068 178.807 14.788L178.819 19H177.007L176.995 15.004ZM185.007 15.472C185.007 15.048 184.891 14.716 184.659 14.476C184.435 14.236 184.127 14.116 183.735 14.116C183.279 14.124 182.919 14.288 182.655 14.608C182.391 14.928 182.259 15.332 182.259 15.82H181.791C181.791 15.068 181.899 14.448 182.115 13.96C182.339 13.464 182.651 13.096 183.051 12.856C183.459 12.608 183.939 12.484 184.491 12.484C184.971 12.484 185.387 12.588 185.739 12.796C186.099 12.996 186.375 13.28 186.567 13.648C186.759 14.016 186.855 14.452 186.855 14.956V19H185.007V15.472ZM180.411 12.556H182.259V19H180.411V12.556ZM192.519 14.404C192.167 14.212 191.819 14.064 191.475 13.96C191.131 13.848 190.823 13.792 190.551 13.792C190.335 13.792 190.155 13.832 190.011 13.912C189.875 13.992 189.807 14.12 189.807 14.296C189.807 14.464 189.887 14.6 190.047 14.704C190.215 14.8 190.427 14.884 190.683 14.956C190.947 15.028 191.223 15.112 191.511 15.208C191.799 15.296 192.071 15.412 192.327 15.556C192.591 15.7 192.803 15.896 192.963 16.144C193.123 16.384 193.203 16.696 193.203 17.08C193.203 17.512 193.087 17.88 192.855 18.184C192.623 18.48 192.307 18.704 191.907 18.856C191.507 19 191.063 19.072 190.575 19.072C190.055 19.072 189.551 18.996 189.062 18.844C188.575 18.692 188.147 18.468 187.779 18.172L188.379 16.972C188.715 17.228 189.083 17.428 189.483 17.572C189.891 17.708 190.271 17.776 190.623 17.776C190.783 17.776 190.923 17.756 191.043 17.716C191.163 17.676 191.259 17.616 191.331 17.536C191.403 17.456 191.439 17.356 191.439 17.236C191.439 17.06 191.359 16.92 191.199 16.816C191.039 16.704 190.831 16.612 190.575 16.54C190.319 16.46 190.047 16.38 189.759 16.3C189.471 16.212 189.199 16.096 188.943 15.952C188.695 15.808 188.491 15.62 188.331 15.388C188.171 15.148 188.091 14.84 188.091 14.464C188.091 14.016 188.207 13.648 188.439 13.36C188.671 13.064 188.979 12.844 189.363 12.7C189.747 12.556 190.171 12.484 190.635 12.484C191.083 12.484 191.523 12.544 191.955 12.664C192.395 12.784 192.795 12.956 193.155 13.18L192.519 14.404ZM197.489 19.744C197.257 20.296 196.945 20.712 196.553 20.992C196.161 21.272 195.685 21.412 195.125 21.412C194.789 21.412 194.477 21.36 194.189 21.256C193.909 21.16 193.637 21.008 193.373 20.8L194.153 19.516C194.433 19.74 194.713 19.852 194.993 19.852C195.185 19.852 195.353 19.8 195.497 19.696C195.641 19.6 195.757 19.452 195.845 19.252L196.025 18.868L193.349 12.556H195.257L196.949 17.068L198.473 12.556H200.321L197.489 19.744ZM203.234 16.204C202.882 16.204 202.618 16.264 202.442 16.384C202.266 16.504 202.178 16.696 202.178 16.96C202.178 17.216 202.266 17.42 202.442 17.572C202.626 17.716 202.874 17.788 203.186 17.788C203.458 17.788 203.698 17.744 203.906 17.656C204.122 17.56 204.298 17.436 204.434 17.284C204.578 17.124 204.666 16.94 204.698 16.732L204.974 17.764C204.79 18.196 204.502 18.524 204.11 18.748C203.718 18.972 203.238 19.084 202.67 19.084C202.214 19.084 201.818 18.996 201.482 18.82C201.154 18.644 200.898 18.404 200.714 18.1C200.538 17.796 200.45 17.452 200.45 17.068C200.45 16.468 200.662 15.996 201.086 15.652C201.51 15.308 202.118 15.132 202.91 15.124H204.878V16.204H203.234ZM204.686 15.004C204.686 14.652 204.57 14.376 204.338 14.176C204.114 13.976 203.782 13.876 203.342 13.876C203.054 13.876 202.746 13.928 202.418 14.032C202.09 14.128 201.758 14.268 201.422 14.452L200.846 13.252C201.166 13.084 201.478 12.944 201.782 12.832C202.086 12.72 202.398 12.636 202.718 12.58C203.038 12.516 203.386 12.484 203.762 12.484C204.634 12.484 205.306 12.688 205.778 13.096C206.25 13.504 206.49 14.068 206.498 14.788L206.51 19H204.698L204.686 15.004ZM212.771 15.472C212.771 15.048 212.655 14.716 212.423 14.476C212.199 14.236 211.891 14.116 211.499 14.116C211.035 14.124 210.671 14.288 210.407 14.608C210.143 14.928 210.011 15.332 210.011 15.82H209.555C209.555 15.068 209.663 14.448 209.879 13.96C210.095 13.464 210.403 13.096 210.803 12.856C211.211 12.608 211.691 12.484 212.243 12.484C212.731 12.484 213.151 12.588 213.503 12.796C213.863 12.996 214.139 13.28 214.331 13.648C214.523 14.016 214.619 14.452 214.619 14.956V19H212.771V15.472ZM208.163 10.096H210.011V19H208.163V10.096Z" fill="#DDA853"/>
</g>
<defs>
<filter id="filter0_f_192_21" x="0.723828" y="0.639997" width="221.095" height="27.972" filterUnits="userSpaceOnUse" color-interpolation-filters="sRGB">
<feFlood flood-opacity="0" result="BackgroundImageFix"/>
<feBlend mode="normal" in="SourceGraphic" in2="BackgroundImageFix" result="shape"/>
<feGaussianBlur stdDeviation="3.6" result="effect1_foregroundBlur_192_21"/>
</filter>
<filter id="filter1_i_192_21" x="7.92383" y="7.84" width="206.695" height="17.572" filterUnits="userSpaceOnUse" color-interpolation-filters="sRGB">
<feFlood flood-opacity="0" result="BackgroundImageFix"/>
<feBlend mode="normal" in="SourceGraphic" in2="BackgroundImageFix" result="shape"/>
<feColorMatrix in="SourceAlpha" type="matrix" values="0 0 0 0 0 0 0 0 0 0 0 0 0 0 0 0 0 0 127 0" result="hardAlpha"/>
<feOffset dy="4"/>
<feGaussianBlur stdDeviation="2"/>
<feComposite in2="hardAlpha" operator="arithmetic" k2="-1" k3="1"/>
<feColorMatrix type="matrix" values="0 0 0 0 0 0 0 0 0 0 0 0 0 0 0 0 0 0 0.25 0"/>
<feBlend mode="normal" in2="shape" result="effect1_innerShadow_192_21"/>
</filter>
</defs>
</svg>
